# xmcd CD database file
#
# Track frame offsets:
#	150
#	29665
#	64537
#	88955
#	134617
#	160772
#	185717
#
# Disc length: 3380 seconds
#
# Revision: 0
# Processed by: cddbd v1.5.1PL0 Copyright (c) Steve Scherf et al.
# Submitted via: CDex 1.51
#
DISCID=630d3207
DTITLE=Wannaa Keaopidom - Mohlam of Siiphandon
DYEAR=1996
DGENRE=world
TTITLE0=Lam Siiphandon - Introduction
TTITLE1=Lam Siiphandon - Kiao Sao 1
TTITLE2=Lam Siiphandon - Kiao Sao 2
TTITLE3=Lam Siiphandon - The Folklore Song Of Naang Tengoong
TTITLE4=Lam San
TTITLE5=Lam Nyao - Lam Tuei
TTITLE6=Lam Siiphandon - Epilogue At Dawn
EXTD=YEAR: 1996
EXTT0=
EXTT1=
EXTT2=
EXTT3=
EXTT4=
EXTT5=
EXTT6=
PLAYORDER=
